<svg width="95" height="22" viewBox="0 0 95 22" fill="none" xmlns="http://www.w3.org/2000/svg">
<path d="M0 11C0 4.92487 4.92487 0 11 0H56V22H11C4.92487 22 0 17.0751 0 11V11Z" fill="#222222"/>
<path d="M11.9395 8.66016V15.7324C11.9395 16.9512 11.3867 17.5605 10.2812 17.5605C10.043 17.5605 9.82227 17.5254 9.61914 17.4551V16.5879C9.74414 16.6191 9.9082 16.6348 10.1113 16.6348C10.3535 16.6348 10.5371 16.5684 10.6621 16.4355C10.791 16.3066 10.8555 16.0801 10.8555 15.7559V8.66016H11.9395ZM10.7441 6.97852C10.7441 6.80664 10.7969 6.66016 10.9023 6.53906C11.0117 6.41406 11.1699 6.35156 11.377 6.35156C11.5879 6.35156 11.748 6.41211 11.8574 6.5332C11.9668 6.6543 12.0215 6.80273 12.0215 6.97852C12.0215 7.1543 11.9668 7.30078 11.8574 7.41797C11.748 7.53516 11.5879 7.59375 11.377 7.59375C11.166 7.59375 11.0078 7.53516 10.9023 7.41797C10.7969 7.30078 10.7441 7.1543 10.7441 6.97852ZM17.3828 13.3184C17.3828 13.0254 17.2715 12.7988 17.0488 12.6387C16.8301 12.4746 16.4453 12.334 15.8945 12.2168C15.3477 12.0996 14.9121 11.959 14.5879 11.7949C14.2676 11.6309 14.0293 11.4355 13.873 11.209C13.7207 10.9824 13.6445 10.7129 13.6445 10.4004C13.6445 9.88086 13.8633 9.44141 14.3008 9.08203C14.7422 8.72266 15.3047 8.54297 15.9883 8.54297C16.707 8.54297 17.2891 8.72852 17.7344 9.09961C18.1836 9.4707 18.4082 9.94531 18.4082 10.5234H17.3184C17.3184 10.2266 17.1914 9.9707 16.9375 9.75586C16.6875 9.54102 16.3711 9.43359 15.9883 9.43359C15.5938 9.43359 15.2852 9.51953 15.0625 9.69141C14.8398 9.86328 14.7285 10.0879 14.7285 10.3652C14.7285 10.627 14.832 10.8242 15.0391 10.957C15.2461 11.0898 15.6191 11.2168 16.1582 11.3379C16.7012 11.459 17.1406 11.6035 17.4766 11.7715C17.8125 11.9395 18.0605 12.1426 18.2207 12.3809C18.3848 12.6152 18.4668 12.9023 18.4668 13.2422C18.4668 13.8086 18.2402 14.2637 17.7871 14.6074C17.334 14.9473 16.7461 15.1172 16.0234 15.1172C15.5156 15.1172 15.0664 15.0273 14.6758 14.8477C14.2852 14.668 13.9785 14.418 13.7559 14.0977C13.5371 13.7734 13.4277 13.4238 13.4277 13.0488H14.5117C14.5312 13.4121 14.6758 13.7012 14.9453 13.916C15.2188 14.127 15.5781 14.2324 16.0234 14.2324C16.4336 14.2324 16.7617 14.1504 17.0078 13.9863C17.2578 13.8184 17.3828 13.5957 17.3828 13.3184ZM20.0488 15V6.46875H22.457C23.1992 6.46875 23.8555 6.63281 24.4258 6.96094C24.9961 7.28906 25.4355 7.75586 25.7441 8.36133C26.0566 8.9668 26.2148 9.66211 26.2188 10.4473V10.9922C26.2188 11.7969 26.0625 12.502 25.75 13.1074C25.4414 13.7129 24.998 14.1777 24.4199 14.502C23.8457 14.8262 23.1758 14.9922 22.4102 15H20.0488ZM21.1738 7.39453V14.0801H22.3574C23.2246 14.0801 23.8984 13.8105 24.3789 13.2715C24.8633 12.7324 25.1055 11.9648 25.1055 10.9688V10.4707C25.1055 9.50195 24.877 8.75 24.4199 8.21484C23.9668 7.67578 23.3223 7.40234 22.4863 7.39453H21.1738ZM30.3848 15.1172C29.5254 15.1172 28.8262 14.8359 28.2871 14.2734C27.748 13.707 27.4785 12.9512 27.4785 12.0059V11.8066C27.4785 11.1777 27.5977 10.6172 27.8359 10.125C28.0781 9.62891 28.4141 9.24219 28.8438 8.96484C29.2773 8.68359 29.7461 8.54297 30.25 8.54297C31.0742 8.54297 31.7148 8.81445 32.1719 9.35742C32.6289 9.90039 32.8574 10.6777 32.8574 11.6895V12.1406H28.5625C28.5781 12.7656 28.7598 13.2715 29.1074 13.6582C29.459 14.041 29.9043 14.2324 30.4434 14.2324C30.8262 14.2324 31.1504 14.1543 31.416 13.998C31.6816 13.8418 31.9141 13.6348 32.1133 13.377L32.7754 13.8926C32.2441 14.709 31.4473 15.1172 30.3848 15.1172ZM30.25 9.43359C29.8125 9.43359 29.4453 9.59375 29.1484 9.91406C28.8516 10.2305 28.668 10.6758 28.5977 11.25H31.7734V11.168C31.7422 10.6172 31.5938 10.1914 31.3281 9.89062C31.0625 9.58594 30.7031 9.43359 30.25 9.43359ZM35.2949 15H34.2109V6H35.2949V15ZM38.2129 15H37.1289V8.66016H38.2129V15ZM37.041 6.97852C37.041 6.80273 37.0938 6.6543 37.1992 6.5332C37.3086 6.41211 37.4688 6.35156 37.6797 6.35156C37.8906 6.35156 38.0508 6.41211 38.1602 6.5332C38.2695 6.6543 38.3242 6.80273 38.3242 6.97852C38.3242 7.1543 38.2695 7.30078 38.1602 7.41797C38.0508 7.53516 37.8906 7.59375 37.6797 7.59375C37.4688 7.59375 37.3086 7.53516 37.1992 7.41797C37.0938 7.30078 37.041 7.1543 37.041 6.97852ZM42.0449 13.5293L43.6152 8.66016H44.7227L42.4492 15H41.623L39.3262 8.66016H40.4336L42.0449 13.5293ZM48.8301 9.63281C48.666 9.60547 48.4883 9.5918 48.2969 9.5918C47.5859 9.5918 47.1035 9.89453 46.8496 10.5V15H45.7656V8.66016H46.8203L46.8379 9.39258C47.1934 8.82617 47.6973 8.54297 48.3496 8.54297C48.5605 8.54297 48.7207 8.57031 48.8301 8.625V9.63281Z" fill="white"/>
<path d="M56 0H84C90.0751 0 95 4.92487 95 11C95 17.0751 90.0751 22 84 22H56V0Z" fill="#FFA500"/>
<path d="M65.9121 13.5293L67.4824 8.66016H68.5898L66.3164 15H65.4902L63.1934 8.66016H64.3008L65.9121 13.5293ZM75.1113 15H69.5215V14.2207L72.4746 10.9395C72.9121 10.4434 73.2129 10.041 73.377 9.73242C73.5449 9.41992 73.6289 9.09766 73.6289 8.76562C73.6289 8.32031 73.4941 7.95508 73.2246 7.66992C72.9551 7.38477 72.5957 7.24219 72.1465 7.24219C71.6074 7.24219 71.1875 7.39648 70.8867 7.70508C70.5898 8.00977 70.4414 8.43555 70.4414 8.98242H69.3574C69.3574 8.19727 69.6094 7.5625 70.1133 7.07812C70.6211 6.59375 71.2988 6.35156 72.1465 6.35156C72.9395 6.35156 73.5664 6.56055 74.0273 6.97852C74.4883 7.39258 74.7188 7.94531 74.7188 8.63672C74.7188 9.47656 74.1836 10.4766 73.1133 11.6367L70.8281 14.1152H75.1113V15ZM76.3945 14.4316C76.3945 14.2441 76.4492 14.0879 76.5586 13.9629C76.6719 13.8379 76.8398 13.7754 77.0625 13.7754C77.2852 13.7754 77.4531 13.8379 77.5664 13.9629C77.6836 14.0879 77.7422 14.2441 77.7422 14.4316C77.7422 14.6113 77.6836 14.7617 77.5664 14.8828C77.4531 15.0039 77.2852 15.0645 77.0625 15.0645C76.8398 15.0645 76.6719 15.0039 76.5586 14.8828C76.4492 14.7617 76.3945 14.6113 76.3945 14.4316ZM84.7734 11.3613C84.7734 12.6309 84.5566 13.5742 84.123 14.1914C83.6895 14.8086 83.0117 15.1172 82.0898 15.1172C81.1797 15.1172 80.5059 14.8164 80.0684 14.2148C79.6309 13.6094 79.4043 12.707 79.3887 11.5078V10.0605C79.3887 8.80664 79.6055 7.875 80.0391 7.26562C80.4727 6.65625 81.1523 6.35156 82.0781 6.35156C82.9961 6.35156 83.6719 6.64648 84.1055 7.23633C84.5391 7.82227 84.7617 8.72852 84.7734 9.95508V11.3613ZM83.6895 9.87891C83.6895 8.96094 83.5605 8.29297 83.3027 7.875C83.0449 7.45312 82.6367 7.24219 82.0781 7.24219C81.5234 7.24219 81.1191 7.45117 80.8652 7.86914C80.6113 8.28711 80.4805 8.92969 80.4727 9.79688V11.5312C80.4727 12.4531 80.6055 13.1348 80.8711 13.5762C81.1406 14.0137 81.5469 14.2324 82.0898 14.2324C82.625 14.2324 83.0215 14.0254 83.2793 13.6113C83.541 13.1973 83.6777 12.5449 83.6895 11.6543V9.87891Z" fill="white"/>
</svg>
