<svg width="146" height="41" viewBox="0 0 146 41" fill="none" xmlns="http://www.w3.org/2000/svg">
<path d="M12.348 18.748C12.348 17.0493 11.928 15.7427 11.088 14.828C10.248 13.9133 9.128 13.456 7.728 13.456C6.944 13.456 6.328 13.484 5.88 13.54C5.45067 13.596 5.10533 13.6613 4.844 13.736V22.92C5.16133 23.1813 5.61867 23.4333 6.216 23.676C6.81333 23.9187 7.46667 24.04 8.176 24.04C8.92267 24.04 9.55733 23.9093 10.08 23.648C10.6213 23.368 11.06 22.9947 11.396 22.528C11.732 22.0427 11.9747 21.4827 12.124 20.848C12.2733 20.1947 12.348 19.4947 12.348 18.748ZM15.064 18.748C15.064 19.8493 14.9147 20.8667 14.616 21.8C14.336 22.7333 13.916 23.536 13.356 24.208C12.796 24.88 12.1053 25.4027 11.284 25.776C10.4813 26.1493 9.55733 26.336 8.512 26.336C7.672 26.336 6.92533 26.224 6.272 26C5.63733 25.776 5.16133 25.5613 4.844 25.356V31.18H2.24V11.888C2.856 11.7387 3.62133 11.58 4.536 11.412C5.46933 11.2253 6.54267 11.132 7.756 11.132C8.876 11.132 9.884 11.3093 10.78 11.664C11.676 12.0187 12.4413 12.5227 13.076 13.176C13.7107 13.8293 14.196 14.632 14.532 15.584C14.8867 16.5173 15.064 17.572 15.064 18.748ZM24.1043 11.132C24.3283 11.132 24.5803 11.1507 24.8603 11.188C25.1589 11.2067 25.4483 11.244 25.7283 11.3C26.0083 11.3373 26.2603 11.384 26.4843 11.44C26.7269 11.4773 26.9043 11.5147 27.0163 11.552L26.5683 13.82C26.3629 13.7453 26.0176 13.6613 25.5323 13.568C25.0656 13.456 24.4589 13.4 23.7123 13.4C23.2269 13.4 22.7416 13.456 22.2563 13.568C21.7896 13.6613 21.4816 13.7267 21.3323 13.764V26H18.7283V12.056C19.3443 11.832 20.1096 11.6267 21.0243 11.44C21.9389 11.2347 22.9656 11.132 24.1043 11.132ZM42.3811 18.72C42.3811 19.8773 42.2131 20.9227 41.8771 21.856C41.5411 22.7893 41.0651 23.592 40.4491 24.264C39.8517 24.936 39.1331 25.4587 38.2931 25.832C37.4531 26.1867 36.5384 26.364 35.5491 26.364C34.5597 26.364 33.6451 26.1867 32.8051 25.832C31.9651 25.4587 31.2371 24.936 30.6211 24.264C30.0237 23.592 29.5571 22.7893 29.2211 21.856C28.8851 20.9227 28.7171 19.8773 28.7171 18.72C28.7171 17.5813 28.8851 16.5453 29.2211 15.612C29.5571 14.66 30.0237 13.848 30.6211 13.176C31.2371 12.504 31.9651 11.9907 32.8051 11.636C33.6451 11.2627 34.5597 11.076 35.5491 11.076C36.5384 11.076 37.4531 11.2627 38.2931 11.636C39.1331 11.9907 39.8517 12.504 40.4491 13.176C41.0651 13.848 41.5411 14.66 41.8771 15.612C42.2131 16.5453 42.3811 17.5813 42.3811 18.72ZM39.6651 18.72C39.6651 17.0773 39.2917 15.78 38.5451 14.828C37.8171 13.8573 36.8184 13.372 35.5491 13.372C34.2797 13.372 33.2717 13.8573 32.5251 14.828C31.7971 15.78 31.4331 17.0773 31.4331 18.72C31.4331 20.3627 31.7971 21.6693 32.5251 22.64C33.2717 23.592 34.2797 24.068 35.5491 24.068C36.8184 24.068 37.8171 23.592 38.5451 22.64C39.2917 21.6693 39.6651 20.3627 39.6651 18.72ZM55.4527 14.52C55.1354 14.2587 54.678 14.0067 54.0807 13.764C53.4834 13.5213 52.83 13.4 52.1207 13.4C51.374 13.4 50.73 13.54 50.1887 13.82C49.666 14.0813 49.2367 14.4547 48.9007 14.94C48.5647 15.4067 48.322 15.9667 48.1727 16.62C48.0234 17.2733 47.9487 17.9733 47.9487 18.72C47.9487 20.4187 48.3687 21.7347 49.2087 22.668C50.0487 23.5827 51.1687 24.04 52.5687 24.04C53.278 24.04 53.866 24.012 54.3327 23.956C54.818 23.8813 55.1914 23.8067 55.4527 23.732V14.52ZM55.4527 4.72L58.0567 4.272V25.58C57.4594 25.748 56.694 25.916 55.7607 26.084C54.8274 26.252 53.754 26.336 52.5407 26.336C51.4207 26.336 50.4127 26.1587 49.5167 25.804C48.6207 25.4493 47.8554 24.9453 47.2207 24.292C46.586 23.6387 46.0914 22.8453 45.7367 21.912C45.4007 20.96 45.2327 19.896 45.2327 18.72C45.2327 17.6 45.3727 16.5733 45.6527 15.64C45.9514 14.7067 46.3807 13.904 46.9407 13.232C47.5007 12.56 48.182 12.0373 48.9847 11.664C49.806 11.2907 50.7394 11.104 51.7847 11.104C52.6247 11.104 53.362 11.216 53.9967 11.44C54.65 11.664 55.1354 11.8787 55.4527 12.084V4.72ZM74.125 25.58C73.5276 25.7293 72.7343 25.888 71.745 26.056C70.7743 26.224 69.645 26.308 68.357 26.308C67.237 26.308 66.2943 26.1493 65.529 25.832C64.7636 25.496 64.1476 25.0293 63.681 24.432C63.2143 23.8347 62.8783 23.1347 62.673 22.332C62.4676 21.5107 62.365 20.6053 62.365 19.616V11.44H64.969V19.056C64.969 20.8293 65.249 22.0987 65.809 22.864C66.369 23.6293 67.3116 24.012 68.637 24.012C68.917 24.012 69.2063 24.0027 69.505 23.984C69.8036 23.9653 70.0836 23.9467 70.345 23.928C70.6063 23.8907 70.8396 23.8627 71.045 23.844C71.269 23.8067 71.4276 23.7693 71.521 23.732V11.44H74.125V25.58ZM84.9391 26.336C83.7631 26.336 82.7271 26.1493 81.8311 25.776C80.9538 25.4027 80.2071 24.88 79.5911 24.208C78.9938 23.536 78.5458 22.7427 78.2471 21.828C77.9484 20.8947 77.7991 19.868 77.7991 18.748C77.7991 17.628 77.9578 16.6013 78.2751 15.668C78.6111 14.7347 79.0778 13.932 79.6751 13.26C80.2724 12.5693 81.0004 12.0373 81.8591 11.664C82.7364 11.272 83.7071 11.076 84.7711 11.076C85.4244 11.076 86.0778 11.132 86.7311 11.244C87.3844 11.356 88.0098 11.5333 88.6071 11.776L88.0191 13.988C87.6271 13.8013 87.1698 13.652 86.6471 13.54C86.1431 13.428 85.6018 13.372 85.0231 13.372C83.5671 13.372 82.4471 13.8293 81.6631 14.744C80.8978 15.6587 80.5151 16.9933 80.5151 18.748C80.5151 19.532 80.5991 20.2507 80.7671 20.904C80.9538 21.5573 81.2338 22.1173 81.6071 22.584C81.9991 23.0507 82.4938 23.4147 83.0911 23.676C83.6884 23.9187 84.4164 24.04 85.2751 24.04C85.9658 24.04 86.5911 23.9747 87.1511 23.844C87.7111 23.7133 88.1498 23.5733 88.4671 23.424L88.8311 25.608C88.6818 25.7013 88.4671 25.7947 88.1871 25.888C87.9071 25.9627 87.5898 26.028 87.2351 26.084C86.8804 26.1587 86.4978 26.2147 86.0871 26.252C85.6951 26.308 85.3124 26.336 84.9391 26.336ZM94.0627 11.44H99.5787V13.624H94.0627V20.344C94.0627 21.072 94.1187 21.6787 94.2307 22.164C94.3427 22.6307 94.5107 23.004 94.7347 23.284C94.9587 23.5453 95.2387 23.732 95.5747 23.844C95.9107 23.956 96.3027 24.012 96.7507 24.012C97.5347 24.012 98.1601 23.928 98.6267 23.76C99.1121 23.5733 99.4481 23.4427 99.6347 23.368L100.139 25.524C99.8774 25.6547 99.4201 25.8133 98.7667 26C98.1134 26.2053 97.3667 26.308 96.5267 26.308C95.5374 26.308 94.7161 26.1867 94.0627 25.944C93.4281 25.6827 92.9147 25.3 92.5227 24.796C92.1307 24.292 91.8507 23.676 91.6827 22.948C91.5334 22.2013 91.4587 21.3427 91.4587 20.372V7.38L94.0627 6.932V11.44ZM106.273 24.488C106.273 24.992 106.105 25.4307 105.769 25.804C105.433 26.1773 104.976 26.364 104.397 26.364C103.818 26.364 103.361 26.1773 103.025 25.804C102.689 25.4307 102.521 24.992 102.521 24.488C102.521 23.984 102.689 23.5453 103.025 23.172C103.361 22.7987 103.818 22.612 104.397 22.612C104.976 22.612 105.433 22.7987 105.769 23.172C106.105 23.5453 106.273 23.984 106.273 24.488ZM116.412 26.336C115.236 26.336 114.2 26.1493 113.304 25.776C112.426 25.4027 111.68 24.88 111.064 24.208C110.466 23.536 110.018 22.7427 109.72 21.828C109.421 20.8947 109.272 19.868 109.272 18.748C109.272 17.628 109.43 16.6013 109.748 15.668C110.084 14.7347 110.55 13.932 111.148 13.26C111.745 12.5693 112.473 12.0373 113.332 11.664C114.209 11.272 115.18 11.076 116.244 11.076C116.897 11.076 117.55 11.132 118.204 11.244C118.857 11.356 119.482 11.5333 120.08 11.776L119.492 13.988C119.1 13.8013 118.642 13.652 118.12 13.54C117.616 13.428 117.074 13.372 116.496 13.372C115.04 13.372 113.92 13.8293 113.136 14.744C112.37 15.6587 111.988 16.9933 111.988 18.748C111.988 19.532 112.072 20.2507 112.24 20.904C112.426 21.5573 112.706 22.1173 113.08 22.584C113.472 23.0507 113.966 23.4147 114.564 23.676C115.161 23.9187 115.889 24.04 116.748 24.04C117.438 24.04 118.064 23.9747 118.624 23.844C119.184 23.7133 119.622 23.5733 119.94 23.424L120.304 25.608C120.154 25.7013 119.94 25.7947 119.66 25.888C119.38 25.9627 119.062 26.028 118.708 26.084C118.353 26.1587 117.97 26.2147 117.56 26.252C117.168 26.308 116.785 26.336 116.412 26.336ZM126.487 24.124C127.551 24.124 128.335 23.984 128.839 23.704C129.362 23.424 129.623 22.976 129.623 22.36C129.623 21.7253 129.371 21.2213 128.867 20.848C128.363 20.4747 127.533 20.0547 126.375 19.588C125.815 19.364 125.274 19.14 124.751 18.916C124.247 18.6733 123.809 18.3933 123.435 18.076C123.062 17.7587 122.763 17.376 122.539 16.928C122.315 16.48 122.203 15.9293 122.203 15.276C122.203 13.988 122.679 12.9707 123.631 12.224C124.583 11.4587 125.881 11.076 127.523 11.076C127.934 11.076 128.345 11.104 128.755 11.16C129.166 11.1973 129.549 11.2533 129.903 11.328C130.258 11.384 130.566 11.4493 130.827 11.524C131.107 11.5987 131.322 11.664 131.471 11.72L130.995 13.96C130.715 13.8107 130.277 13.6613 129.679 13.512C129.082 13.344 128.363 13.26 127.523 13.26C126.795 13.26 126.161 13.4093 125.619 13.708C125.078 13.988 124.807 14.436 124.807 15.052C124.807 15.3693 124.863 15.6493 124.975 15.892C125.106 16.1347 125.293 16.3587 125.535 16.564C125.797 16.7507 126.114 16.928 126.487 17.096C126.861 17.264 127.309 17.4413 127.831 17.628C128.522 17.8893 129.138 18.1507 129.679 18.412C130.221 18.6547 130.678 18.944 131.051 19.28C131.443 19.616 131.742 20.0267 131.947 20.512C132.153 20.9787 132.255 21.5573 132.255 22.248C132.255 23.592 131.751 24.6093 130.743 25.3C129.754 25.9907 128.335 26.336 126.487 26.336C125.199 26.336 124.191 26.224 123.463 26C122.735 25.7947 122.241 25.636 121.979 25.524L122.455 23.284C122.754 23.396 123.23 23.564 123.883 23.788C124.537 24.012 125.405 24.124 126.487 24.124ZM138.983 24.124C140.047 24.124 140.831 23.984 141.335 23.704C141.858 23.424 142.119 22.976 142.119 22.36C142.119 21.7253 141.867 21.2213 141.363 20.848C140.859 20.4747 140.029 20.0547 138.871 19.588C138.311 19.364 137.77 19.14 137.247 18.916C136.743 18.6733 136.305 18.3933 135.931 18.076C135.558 17.7587 135.259 17.376 135.035 16.928C134.811 16.48 134.699 15.9293 134.699 15.276C134.699 13.988 135.175 12.9707 136.127 12.224C137.079 11.4587 138.377 11.076 140.019 11.076C140.43 11.076 140.841 11.104 141.251 11.16C141.662 11.1973 142.045 11.2533 142.399 11.328C142.754 11.384 143.062 11.4493 143.323 11.524C143.603 11.5987 143.818 11.664 143.967 11.72L143.491 13.96C143.211 13.8107 142.773 13.6613 142.175 13.512C141.578 13.344 140.859 13.26 140.019 13.26C139.291 13.26 138.657 13.4093 138.115 13.708C137.574 13.988 137.303 14.436 137.303 15.052C137.303 15.3693 137.359 15.6493 137.471 15.892C137.602 16.1347 137.789 16.3587 138.031 16.564C138.293 16.7507 138.61 16.928 138.983 17.096C139.357 17.264 139.805 17.4413 140.327 17.628C141.018 17.8893 141.634 18.1507 142.175 18.412C142.717 18.6547 143.174 18.944 143.547 19.28C143.939 19.616 144.238 20.0267 144.443 20.512C144.649 20.9787 144.751 21.5573 144.751 22.248C144.751 23.592 144.247 24.6093 143.239 25.3C142.25 25.9907 140.831 26.336 138.983 26.336C137.695 26.336 136.687 26.224 135.959 26C135.231 25.7947 134.737 25.636 134.475 25.524L134.951 23.284C135.25 23.396 135.726 23.564 136.379 23.788C137.033 24.012 137.901 24.124 138.983 24.124Z" fill="black"/>
<path d="M83.392 33.456V34.128H81.648V39H80.872V34.128H79.128V33.456H83.392ZM84.1634 39V32.92L84.9074 32.792V34.92C85.0461 34.8667 85.1928 34.8267 85.3474 34.8C85.5074 34.768 85.6648 34.752 85.8194 34.752C86.1501 34.752 86.4248 34.8 86.6434 34.896C86.8621 34.9867 87.0354 35.1173 87.1634 35.288C87.2968 35.4533 87.3901 35.6533 87.4434 35.888C87.4968 36.1227 87.5234 36.3813 87.5234 36.664V39H86.7794V36.824C86.7794 36.568 86.7608 36.3493 86.7234 36.168C86.6914 35.9867 86.6354 35.84 86.5554 35.728C86.4754 35.616 86.3688 35.536 86.2354 35.488C86.1021 35.4347 85.9368 35.408 85.7394 35.408C85.6594 35.408 85.5768 35.4133 85.4914 35.424C85.4061 35.4347 85.3234 35.448 85.2434 35.464C85.1688 35.4747 85.0994 35.488 85.0354 35.504C84.9768 35.52 84.9341 35.5333 84.9074 35.544V39H84.1634ZM88.5018 36.928C88.5018 36.56 88.5551 36.24 88.6618 35.968C88.7684 35.6907 88.9098 35.4613 89.0858 35.28C89.2618 35.0987 89.4644 34.9627 89.6938 34.872C89.9231 34.7813 90.1578 34.736 90.3978 34.736C90.9578 34.736 91.3871 34.912 91.6858 35.264C91.9844 35.6107 92.1337 36.1413 92.1337 36.856C92.1337 36.888 92.1337 36.9307 92.1337 36.984C92.1337 37.032 92.1311 37.0773 92.1258 37.12H89.2778C89.3098 37.552 89.4351 37.88 89.6538 38.104C89.8724 38.328 90.2138 38.44 90.6778 38.44C90.9391 38.44 91.1578 38.4187 91.3338 38.376C91.5151 38.328 91.6511 38.2827 91.7418 38.24L91.8458 38.864C91.7551 38.912 91.5951 38.9627 91.3658 39.016C91.1418 39.0693 90.8858 39.096 90.5978 39.096C90.2351 39.096 89.9204 39.0427 89.6538 38.936C89.3924 38.824 89.1764 38.672 89.0058 38.48C88.8351 38.288 88.7071 38.0613 88.6217 37.8C88.5418 37.5333 88.5018 37.2427 88.5018 36.928ZM91.3578 36.52C91.3631 36.184 91.2778 35.9093 91.1018 35.696C90.9311 35.4773 90.6938 35.368 90.3898 35.368C90.2191 35.368 90.0671 35.4027 89.9338 35.472C89.8058 35.536 89.6964 35.6213 89.6058 35.728C89.5151 35.8347 89.4431 35.9573 89.3898 36.096C89.3418 36.2347 89.3098 36.376 89.2938 36.52H91.3578ZM97.6621 38.584C97.5981 38.6267 97.4727 38.6827 97.2861 38.752C97.1047 38.816 96.8914 38.848 96.6461 38.848C96.3954 38.848 96.1581 38.808 95.9341 38.728C95.7154 38.648 95.5234 38.5253 95.3581 38.36C95.1927 38.1893 95.0621 37.9787 94.9661 37.728C94.8701 37.4773 94.8221 37.1787 94.8221 36.832C94.8221 36.528 94.8674 36.2507 94.9581 36C95.0487 35.744 95.1794 35.5253 95.3501 35.344C95.5261 35.1573 95.7394 35.0133 95.9901 34.912C96.2407 34.8053 96.5234 34.752 96.8381 34.752C97.1847 34.752 97.4861 34.7787 97.7421 34.832C98.0034 34.88 98.2221 34.9253 98.3981 34.968V38.68C98.3981 39.32 98.2327 39.784 97.9021 40.072C97.5714 40.36 97.0701 40.504 96.3981 40.504C96.1367 40.504 95.8887 40.4827 95.6541 40.44C95.4247 40.3973 95.2247 40.3467 95.0541 40.288L95.1901 39.64C95.3394 39.6987 95.5207 39.7493 95.7341 39.792C95.9527 39.84 96.1794 39.864 96.4141 39.864C96.8567 39.864 97.1741 39.776 97.3661 39.6C97.5634 39.424 97.6621 39.144 97.6621 38.76V38.584ZM97.6541 35.496C97.5794 35.4747 97.4781 35.456 97.3501 35.44C97.2274 35.4187 97.0594 35.408 96.8461 35.408C96.4461 35.408 96.1367 35.5387 95.9181 35.8C95.7047 36.0613 95.5981 36.408 95.5981 36.84C95.5981 37.08 95.6274 37.2853 95.6861 37.456C95.7501 37.6267 95.8327 37.768 95.9341 37.88C96.0407 37.992 96.1607 38.0747 96.2941 38.128C96.4327 38.1813 96.5741 38.208 96.7181 38.208C96.9154 38.208 97.0967 38.1813 97.2621 38.128C97.4274 38.0693 97.5581 38.0027 97.6541 37.928V35.496ZM101.215 34.752C101.279 34.752 101.351 34.7573 101.431 34.768C101.516 34.7733 101.599 34.784 101.679 34.8C101.759 34.8107 101.831 34.824 101.895 34.84C101.964 34.8507 102.015 34.8613 102.047 34.872L101.919 35.52C101.86 35.4987 101.762 35.4747 101.623 35.448C101.49 35.416 101.316 35.4 101.103 35.4C100.964 35.4 100.826 35.416 100.687 35.448C100.554 35.4747 100.466 35.4933 100.423 35.504V39H99.6791V35.016C99.8551 34.952 100.074 34.8933 100.335 34.84C100.596 34.7813 100.89 34.752 101.215 34.752ZM103.509 39H102.765V34.84H103.509V39ZM103.133 34.088C103 34.088 102.885 34.0453 102.789 33.96C102.698 33.8693 102.653 33.7493 102.653 33.6C102.653 33.4507 102.698 33.3333 102.789 33.248C102.885 33.1573 103 33.112 103.133 33.112C103.266 33.112 103.378 33.1573 103.469 33.248C103.565 33.3333 103.613 33.4507 103.613 33.6C103.613 33.7493 103.565 33.8693 103.469 33.96C103.378 34.0453 103.266 34.088 103.133 34.088ZM107.476 35.72C107.386 35.6453 107.255 35.5733 107.084 35.504C106.914 35.4347 106.727 35.4 106.524 35.4C106.311 35.4 106.127 35.44 105.972 35.52C105.823 35.5947 105.7 35.7013 105.604 35.84C105.508 35.9733 105.439 36.1333 105.396 36.32C105.354 36.5067 105.332 36.7067 105.332 36.92C105.332 37.4053 105.452 37.7813 105.692 38.048C105.932 38.3093 106.252 38.44 106.652 38.44C106.855 38.44 107.023 38.432 107.156 38.416C107.295 38.3947 107.402 38.3733 107.476 38.352V35.72ZM107.476 32.92L108.22 32.792V38.88C108.05 38.928 107.831 38.976 107.564 39.024C107.298 39.072 106.991 39.096 106.644 39.096C106.324 39.096 106.036 39.0453 105.78 38.944C105.524 38.8427 105.306 38.6987 105.124 38.512C104.943 38.3253 104.802 38.0987 104.7 37.832C104.604 37.56 104.556 37.256 104.556 36.92C104.556 36.6 104.596 36.3067 104.676 36.04C104.762 35.7733 104.884 35.544 105.044 35.352C105.204 35.16 105.399 35.0107 105.628 34.904C105.863 34.7973 106.13 34.744 106.428 34.744C106.668 34.744 106.879 34.776 107.06 34.84C107.247 34.904 107.386 34.9653 107.476 35.024V32.92ZM110.863 39.776C110.922 39.8027 110.996 39.8267 111.087 39.848C111.183 39.8747 111.276 39.888 111.367 39.888C111.66 39.888 111.89 39.8213 112.055 39.688C112.22 39.56 112.37 39.3493 112.503 39.056C112.167 38.416 111.852 37.7387 111.559 37.024C111.271 36.304 111.031 35.576 110.839 34.84H111.639C111.698 35.08 111.767 35.3387 111.847 35.616C111.932 35.8933 112.026 36.1787 112.127 36.472C112.228 36.7653 112.338 37.0587 112.455 37.352C112.572 37.6453 112.695 37.928 112.823 38.2C113.026 37.64 113.202 37.0853 113.351 36.536C113.5 35.9867 113.642 35.4213 113.775 34.84H114.543C114.351 35.624 114.138 36.3787 113.903 37.104C113.668 37.824 113.415 38.4987 113.143 39.128C113.036 39.368 112.924 39.5733 112.807 39.744C112.695 39.92 112.57 40.064 112.431 40.176C112.292 40.288 112.135 40.3707 111.959 40.424C111.788 40.4773 111.594 40.504 111.375 40.504C111.316 40.504 111.255 40.4987 111.191 40.488C111.127 40.4827 111.063 40.472 110.999 40.456C110.94 40.4453 110.884 40.432 110.831 40.416C110.783 40.4 110.748 40.3867 110.727 40.376L110.863 39.776ZM119 36.92C119 37.2507 118.952 37.5493 118.856 37.816C118.76 38.0827 118.624 38.312 118.448 38.504C118.277 38.696 118.072 38.8453 117.832 38.952C117.592 39.0533 117.33 39.104 117.048 39.104C116.765 39.104 116.504 39.0533 116.264 38.952C116.024 38.8453 115.816 38.696 115.64 38.504C115.469 38.312 115.336 38.0827 115.24 37.816C115.144 37.5493 115.096 37.2507 115.096 36.92C115.096 36.5947 115.144 36.2987 115.24 36.032C115.336 35.76 115.469 35.528 115.64 35.336C115.816 35.144 116.024 34.9973 116.264 34.896C116.504 34.7893 116.765 34.736 117.048 34.736C117.33 34.736 117.592 34.7893 117.832 34.896C118.072 34.9973 118.277 35.144 118.448 35.336C118.624 35.528 118.76 35.76 118.856 36.032C118.952 36.2987 119 36.5947 119 36.92ZM118.224 36.92C118.224 36.4507 118.117 36.08 117.904 35.808C117.696 35.5307 117.41 35.392 117.048 35.392C116.685 35.392 116.397 35.5307 116.184 35.808C115.976 36.08 115.872 36.4507 115.872 36.92C115.872 37.3893 115.976 37.7627 116.184 38.04C116.397 38.312 116.685 38.448 117.048 38.448C117.41 38.448 117.696 38.312 117.904 38.04C118.117 37.7627 118.224 37.3893 118.224 36.92ZM123.358 38.88C123.188 38.9227 122.961 38.968 122.678 39.016C122.401 39.064 122.078 39.088 121.71 39.088C121.39 39.088 121.121 39.0427 120.902 38.952C120.684 38.856 120.508 38.7227 120.374 38.552C120.241 38.3813 120.145 38.1813 120.086 37.952C120.028 37.7173 119.998 37.4587 119.998 37.176V34.84H120.742V37.016C120.742 37.5227 120.822 37.8853 120.982 38.104C121.142 38.3227 121.412 38.432 121.79 38.432C121.87 38.432 121.953 38.4293 122.038 38.424C122.124 38.4187 122.204 38.4133 122.278 38.408C122.353 38.3973 122.42 38.3893 122.478 38.384C122.542 38.3733 122.588 38.3627 122.614 38.352V34.84H123.358V38.88ZM126.492 34.96C126.662 34.9173 126.889 34.872 127.172 34.824C127.454 34.776 127.78 34.752 128.148 34.752C128.478 34.752 128.753 34.8 128.972 34.896C129.19 34.9867 129.364 35.1173 129.492 35.288C129.625 35.4533 129.718 35.6533 129.772 35.888C129.825 36.1227 129.852 36.3813 129.852 36.664V39H129.108V36.824C129.108 36.568 129.089 36.3493 129.052 36.168C129.02 35.9867 128.964 35.84 128.884 35.728C128.804 35.616 128.697 35.536 128.564 35.488C128.43 35.4347 128.265 35.408 128.068 35.408C127.988 35.408 127.905 35.4107 127.82 35.416C127.734 35.4213 127.652 35.4293 127.572 35.44C127.497 35.4453 127.428 35.4533 127.364 35.464C127.305 35.4747 127.262 35.4827 127.236 35.488V39H126.492V34.96ZM130.853 36.928C130.853 36.56 130.907 36.24 131.013 35.968C131.12 35.6907 131.261 35.4613 131.437 35.28C131.613 35.0987 131.816 34.9627 132.045 34.872C132.275 34.7813 132.509 34.736 132.749 34.736C133.309 34.736 133.739 34.912 134.037 35.264C134.336 35.6107 134.485 36.1413 134.485 36.856C134.485 36.888 134.485 36.9307 134.485 36.984C134.485 37.032 134.483 37.0773 134.477 37.12H131.629C131.661 37.552 131.787 37.88 132.005 38.104C132.224 38.328 132.565 38.44 133.029 38.44C133.291 38.44 133.509 38.4187 133.685 38.376C133.867 38.328 134.003 38.2827 134.093 38.24L134.197 38.864C134.107 38.912 133.947 38.9627 133.717 39.016C133.493 39.0693 133.237 39.096 132.949 39.096C132.587 39.096 132.272 39.0427 132.005 38.936C131.744 38.824 131.528 38.672 131.357 38.48C131.187 38.288 131.059 38.0613 130.973 37.8C130.893 37.5333 130.853 37.2427 130.853 36.928ZM133.709 36.52C133.715 36.184 133.629 35.9093 133.453 35.696C133.283 35.4773 133.045 35.368 132.741 35.368C132.571 35.368 132.419 35.4027 132.285 35.472C132.157 35.536 132.048 35.6213 131.957 35.728C131.867 35.8347 131.795 35.9573 131.741 36.096C131.693 36.2347 131.661 36.376 131.645 36.52H133.709ZM135.322 36.928C135.322 36.56 135.375 36.24 135.482 35.968C135.589 35.6907 135.73 35.4613 135.906 35.28C136.082 35.0987 136.285 34.9627 136.514 34.872C136.743 34.7813 136.978 34.736 137.218 34.736C137.778 34.736 138.207 34.912 138.506 35.264C138.805 35.6107 138.954 36.1413 138.954 36.856C138.954 36.888 138.954 36.9307 138.954 36.984C138.954 37.032 138.951 37.0773 138.946 37.12H136.098C136.13 37.552 136.255 37.88 136.474 38.104C136.693 38.328 137.034 38.44 137.498 38.44C137.759 38.44 137.978 38.4187 138.154 38.376C138.335 38.328 138.471 38.2827 138.562 38.24L138.666 38.864C138.575 38.912 138.415 38.9627 138.186 39.016C137.962 39.0693 137.706 39.096 137.418 39.096C137.055 39.096 136.741 39.0427 136.474 38.936C136.213 38.824 135.997 38.672 135.826 38.48C135.655 38.288 135.527 38.0613 135.442 37.8C135.362 37.5333 135.322 37.2427 135.322 36.928ZM138.178 36.52C138.183 36.184 138.098 35.9093 137.922 35.696C137.751 35.4773 137.514 35.368 137.21 35.368C137.039 35.368 136.887 35.4027 136.754 35.472C136.626 35.536 136.517 35.6213 136.426 35.728C136.335 35.8347 136.263 35.9573 136.21 36.096C136.162 36.2347 136.13 36.376 136.114 36.52H138.178ZM142.711 35.72C142.62 35.6453 142.489 35.5733 142.319 35.504C142.148 35.4347 141.961 35.4 141.759 35.4C141.545 35.4 141.361 35.44 141.207 35.52C141.057 35.5947 140.935 35.7013 140.839 35.84C140.743 35.9733 140.673 36.1333 140.631 36.32C140.588 36.5067 140.567 36.7067 140.567 36.92C140.567 37.4053 140.687 37.7813 140.927 38.048C141.167 38.3093 141.487 38.44 141.887 38.44C142.089 38.44 142.257 38.432 142.391 38.416C142.529 38.3947 142.636 38.3733 142.711 38.352V35.72ZM142.711 32.92L143.455 32.792V38.88C143.284 38.928 143.065 38.976 142.799 39.024C142.532 39.072 142.225 39.096 141.879 39.096C141.559 39.096 141.271 39.0453 141.015 38.944C140.759 38.8427 140.54 38.6987 140.359 38.512C140.177 38.3253 140.036 38.0987 139.935 37.832C139.839 37.56 139.791 37.256 139.791 36.92C139.791 36.6 139.831 36.3067 139.911 36.04C139.996 35.7733 140.119 35.544 140.279 35.352C140.439 35.16 140.633 35.0107 140.863 34.904C141.097 34.7973 141.364 34.744 141.663 34.744C141.903 34.744 142.113 34.776 142.295 34.84C142.481 34.904 142.62 34.9653 142.711 35.024V32.92Z" fill="#FFA500"/>
</svg>
